<svg width="13" height="8" viewBox="0 0 13 8" fill="none" xmlns="http://www.w3.org/2000/svg">
<path d="M6.5 -1.2378e-06C6.24352 0.00783416 6.02367 0.109695 5.82582 0.321253L0.249154 6.41724C0.0879368 6.59745 -5.20598e-08 6.80901 -4.07573e-08 7.06758C-1.78099e-08 7.59256 0.38106 8 0.872041 8C1.10654 8 1.32638 7.89814 1.49493 7.71792L6.5 2.2331L11.5051 7.71792C11.6736 7.89814 11.8861 8 12.128 8C12.6189 8 13 7.59256 13 7.06758C13 6.81685 12.9121 6.59745 12.7508 6.41724L7.16685 0.321253C6.97632 0.10186 6.75648 -1.24901e-06 6.5 -1.2378e-06Z" fill="#303030"/>
</svg>
